<?xml version="1.0" encoding="utf-8"?>
<!-- Generator: Adobe Illustrator 21.0.0, SVG Export Plug-In . SVG Version: 6.00 Build 0)  -->
<svg version="1.1" id="Layer_1" xmlns="http://www.w3.org/2000/svg" xmlns:xlink="http://www.w3.org/1999/xlink" x="0px" y="0px"
	 viewBox="0 0 24 24" style="enable-background:new 0 0 24 24;" xml:space="preserve">
<style type="text/css">
	.st0{fill:none;stroke:#4E4848;stroke-miterlimit:10;}
</style>
<g>
	<line class="st0" x1="9" y1="12.5" x2="11" y2="12.5"/>
	<line class="st0" x1="9" y1="15.5" x2="11" y2="15.5"/>
	<line class="st0" x1="13" y1="12.5" x2="15" y2="12.5"/>
	<line class="st0" x1="13" y1="15.5" x2="15" y2="15.5"/>
</g>
<g>
	<path class="st0" d="M16.8,18.5H7.3c-1,0-1.8-0.8-1.8-1.8V8.3c0-1,0.8-1.8,1.8-1.8h9.5c1,0,1.8,0.8,1.8,1.8v8.5
		C18.5,17.7,17.7,18.5,16.8,18.5z"/>
	<line class="st0" x1="5" y1="9.5" x2="18" y2="9.5"/>
	<line class="st0" x1="8.5" y1="8" x2="8.5" y2="5"/>
	<line class="st0" x1="15.5" y1="8" x2="15.5" y2="5"/>
</g>
</svg>
